<svg width="32" height="28" viewBox="0 0 32 28" fill="none" xmlns="http://www.w3.org/2000/svg">
<path d="M22.3667 4.54542L27.3778 9.47919C27.5889 9.68705 27.5889 10.0262 27.3778 10.234L15.2444 22.1801L10.0889 22.7435C9.4 22.8201 8.81667 22.2458 8.89444 21.5675L9.46667 16.4915L21.6 4.54542C21.8111 4.33757 22.1556 4.33757 22.3667 4.54542ZM31.3667 3.29283L28.6556 0.623559C27.8111 -0.207853 26.4389 -0.207853 25.5889 0.623559L23.6222 2.55988C23.4111 2.76773 23.4111 3.10686 23.6222 3.31471L28.6333 8.24849C28.8444 8.45634 29.1889 8.45634 29.4 8.24849L31.3667 6.31217C32.2111 5.47529 32.2111 4.12424 31.3667 3.29283ZM21.3333 18.931V24.4993H3.55556V6.9959H16.3222C16.5 6.9959 16.6667 6.92479 16.7944 6.80445L19.0167 4.61653C19.4389 4.20082 19.1389 3.49521 18.5444 3.49521H2.66667C1.19444 3.49521 0 4.67123 0 6.12073V25.3745C0 26.824 1.19444 28 2.66667 28H22.2222C23.6944 28 24.8889 26.824 24.8889 25.3745V16.7431C24.8889 16.1578 24.1722 15.8679 23.75 16.2782L21.5278 18.4661C21.4056 18.5919 21.3333 18.756 21.3333 18.931Z" fill="#0655D5"/>
</svg>
