<svg width="20" height="20" viewBox="0 0 20 20" fill="none" xmlns="http://www.w3.org/2000/svg">
<g id="iconoir:filter">
<path id="Vector" d="M3.26427 2.44727H16.3207C16.5371 2.44727 16.7447 2.53324 16.8977 2.68627C17.0507 2.83931 17.1367 3.04687 17.1367 3.26329V4.55751C17.1367 4.77391 17.0507 4.98144 16.8976 5.13444L11.6636 10.3684C11.5106 10.5214 11.4246 10.729 11.4245 10.9454V16.0904C11.4245 16.2144 11.3962 16.3368 11.3418 16.4483C11.2874 16.5598 11.2083 16.6574 11.1105 16.7337C11.0127 16.81 10.8988 16.863 10.7775 16.8887C10.6561 16.9144 10.5305 16.9121 10.4102 16.8819L8.77815 16.4739C8.60169 16.4297 8.44506 16.3278 8.33314 16.1844C8.22122 16.041 8.16043 15.8643 8.16042 15.6824V10.9454C8.16038 10.729 8.07437 10.5214 7.92133 10.3684L2.68734 5.13444C2.53429 4.98144 2.44829 4.77391 2.44824 4.55751V3.26329C2.44824 3.04687 2.53422 2.83931 2.68725 2.68627C2.84029 2.53324 3.04784 2.44727 3.26427 2.44727Z" stroke="#B2B2B2" stroke-linecap="round" stroke-linejoin="round"/>
</g>
</svg>
