<svg width="126" height="40" viewBox="0 0 126 40" fill="none" xmlns="http://www.w3.org/2000/svg">
<g id="Group 36724">
<g id="Group">
<path id="Vector" d="M17.5623 29.1543H5.92188V31.2943H17.5623V29.1543Z" fill="#0655D5" stroke="#0655D5" stroke-width="1.32" stroke-miterlimit="10"/>
<path id="Vector_2" d="M4.16795 4.14242C11.5418 -3.19284 24.0405 3.28563 22.3794 13.5703C21.6982 17.788 18.2187 19.8269 17.6545 24.2996C17.5525 25.1059 17.6292 26.0487 17.5019 26.8068C17.3534 27.6944 16.3663 27.7805 15.652 27.8042C12.9295 27.8958 10.196 27.6731 7.47043 27.8057C6.74102 27.7844 6.06298 27.4109 5.98475 26.6307C5.80615 24.8445 5.91837 23.656 5.28774 21.8808C4.32284 19.1636 2.16623 17.5511 1.38862 14.6956C0.360497 10.9194 1.40127 6.89443 4.16795 4.14163V4.14242ZM10.9776 3.63229C5.19845 4.08714 1.79797 10.5546 4.55676 15.6464C5.00088 16.466 5.64494 17.1388 6.16256 17.9048C7.60952 20.0464 8.40056 22.5647 8.54676 25.1477L14.8791 25.1982L14.9747 25.1035C15.0719 22.9635 15.7081 20.874 16.7243 19.0001C17.6371 17.3173 19.0066 16.0586 19.5629 14.1744C21.228 8.53616 16.8176 3.17349 10.9784 3.63308L10.9776 3.63229Z" fill="#0655D5" stroke="#0655D5" stroke-width="1.32" stroke-miterlimit="10"/>
<path id="Vector_3" d="M10.0312 14.8188C9.80913 14.5321 9.54756 14.2747 9.30574 14.0046C9.13189 13.8096 8.96514 13.6098 8.79761 13.4084C8.78022 13.3871 8.68144 13.2616 8.77943 13.3887C8.73992 13.3374 8.7012 13.286 8.66326 13.2339C8.56527 13.1005 8.47044 12.9646 8.38035 12.8264C8.21282 12.569 8.05872 12.3029 7.92595 12.0257C7.89671 11.9641 7.86589 11.901 7.83982 11.837C7.89355 11.9657 7.83112 11.8038 7.8248 11.7872C7.76711 11.623 7.71338 11.4587 7.67228 11.2897C7.56086 10.8317 7.56481 10.3998 7.70468 9.88887C7.72365 9.81859 7.74578 9.7491 7.76948 9.68039C7.82243 9.52562 7.64937 9.86991 7.79872 9.61327C7.8327 9.55484 7.86115 9.49482 7.89988 9.43875C7.87775 9.47113 7.78213 9.55641 7.93781 9.39374C8.10534 9.21765 8.29896 9.18448 8.50442 9.18606C8.57555 9.18606 8.64588 9.19001 8.717 9.19711C8.89718 9.21449 8.5147 9.13631 8.79919 9.21449C8.91299 9.24607 9.02836 9.26976 9.14058 9.30609C9.18404 9.3203 9.35632 9.4119 9.39504 9.39927C9.25674 9.44507 9.18483 9.28556 9.28362 9.35426C9.33656 9.39137 9.40136 9.41506 9.45826 9.44744C9.52227 9.48455 9.5847 9.52325 9.64476 9.56668C9.79965 9.67802 9.49857 9.42375 9.73564 9.64407C9.83679 9.73883 9.934 9.83754 10.0217 9.94493C9.93321 9.83754 10.0359 9.96546 10.0478 9.98205C10.0944 10.0492 10.1387 10.1179 10.1813 10.1882C10.2627 10.3224 10.3339 10.4606 10.4026 10.6019C10.4153 10.628 10.4903 10.8009 10.4405 10.6833C10.3837 10.5482 10.4824 10.7954 10.4824 10.7954C10.5172 10.8886 10.5488 10.9834 10.5796 11.0781C10.676 11.3758 10.7606 11.6783 10.8357 11.9831C11.098 13.0491 11.0814 14.3205 11.7168 15.2571C12.4628 16.3563 13.9208 16.8593 15.2074 16.5971C17.3719 16.1557 18.3107 13.4882 17.9424 11.5361C17.6967 10.2324 16.8756 9.06603 16.004 8.09947C15.6728 7.73227 15.3172 7.38639 14.9474 7.05789C14.7617 6.89364 14.5483 6.74518 14.3776 6.56514C13.4878 5.62543 12.0701 7.04605 12.9583 7.98339C13.3724 8.42087 13.8782 8.7778 14.3002 9.2137C14.4772 9.3969 14.6495 9.58563 14.8138 9.78068C14.8905 9.87149 14.9671 9.96388 15.0398 10.0586C14.9268 9.91335 15.0493 10.0729 15.0754 10.11C15.1197 10.1724 15.1655 10.2347 15.209 10.2979C15.367 10.5277 15.5132 10.7662 15.642 11.0134C15.6989 11.1231 15.7542 11.2345 15.8032 11.3482C15.7297 11.1784 15.808 11.3648 15.823 11.409C15.8475 11.4816 15.8743 11.5535 15.8965 11.6269C15.9415 11.7738 15.9716 11.9215 16.0071 12.0707C16.0166 12.1094 16.0332 12.2666 16.0119 12.0747C16.0182 12.1355 16.0237 12.1955 16.0277 12.2563C16.0348 12.3779 16.0348 12.5011 16.0277 12.6227C16.0277 12.6148 15.9937 12.9117 16.0166 12.7664C16.034 12.6559 15.9787 12.9252 15.97 12.9575C15.9004 13.2252 15.804 13.489 15.721 13.7527C15.6586 13.9494 15.8277 13.5537 15.6965 13.8088C15.6562 13.887 15.6167 13.9652 15.5717 14.0402C15.5432 14.0876 15.3646 14.3284 15.4476 14.2305C15.5377 14.1239 15.4294 14.2471 15.4057 14.2708C15.3504 14.3245 15.2943 14.3782 15.2398 14.4319C15.1394 14.5313 15.3765 14.3458 15.254 14.4232C15.1947 14.4603 15.1386 14.4998 15.0778 14.5337C15.028 14.5614 14.9758 14.589 14.9237 14.6111C15.0952 14.5377 14.9426 14.5993 14.9087 14.6064C14.8486 14.619 14.783 14.6387 14.7229 14.6553C14.4432 14.7311 14.8099 14.6632 14.6321 14.6703C14.5831 14.6727 14.2986 14.6585 14.4503 14.6735C14.5894 14.6877 14.2267 14.6285 14.1713 14.6143C14.0425 14.5827 13.9129 14.5471 13.7904 14.4974C13.9311 14.5543 13.5352 14.341 13.5976 14.3892C13.6514 14.4303 13.3392 14.1105 13.4372 14.2313C13.5194 14.3324 13.3503 14.0836 13.3218 14.037C13.2981 13.9975 13.2807 13.9525 13.261 13.9115C13.3653 14.1318 13.2957 14.0046 13.2855 13.9533C13.2365 13.7125 13.1574 13.4779 13.1132 13.2347C12.8919 12.0186 12.688 10.8073 12.1728 9.6725C11.6575 8.53774 10.7227 7.65409 9.51279 7.32559C8.74624 7.11791 7.90225 7.11791 7.18311 7.4851C6.47346 7.84756 6.01828 8.52826 5.79305 9.27608C5.34735 10.7551 5.70929 12.2847 6.48611 13.583C7.0788 14.5748 7.91252 15.3376 8.6119 16.2394C8.9446 16.6682 9.6819 16.5884 10.0312 16.2394C10.4548 15.8161 10.3647 15.2507 10.0312 14.8212V14.8188Z" fill="#FAA275"/>
<path id="Vector_4" d="M11.8154 19.8555C12.8325 19.8555 13.5105 20.4848 13.5105 21.4277C13.5105 22.3706 12.8325 23.0007 11.8154 23.0007C10.7983 23.0007 10.1211 22.3714 10.1211 21.4277C10.1211 20.4841 10.7991 19.8555 11.8154 19.8555Z" fill="#FAA275"/>
<path id="Vector_5" d="M17.5626 25.1984H5.92212V27.8272H17.5626V25.1984Z" fill="#0655D5" stroke="#0655D5" stroke-width="1.32" stroke-miterlimit="10"/>
</g>
<path id="Vector_6" d="M29.8926 8.51172H33.764V31.0806H29.8926V8.51172Z" fill="#0655D5"/>
<path id="Vector_7" d="M40.0199 31.0798H36.1484V22.7614C36.1484 17.893 39.3751 14.6372 44.4406 14.6372C49.5061 14.6372 52.5715 17.893 52.5715 22.7614V31.0798H48.6677V22.5039C48.6677 19.9564 46.9252 18.2484 44.3118 18.2484C41.6984 18.2484 40.0207 19.9888 40.0207 22.5039V31.0798H40.0199Z" fill="#0655D5"/>
<path id="Vector_8" d="M62.153 14.6046C64.5404 14.6046 66.4441 14.8628 68.1866 15.5072V18.9897C67.0249 18.5703 64.6376 17.8288 61.8306 17.8288C59.7008 17.8288 58.7004 18.3445 58.7004 19.2795C58.7004 22.0844 68.8639 20.4719 68.8639 26.2752C68.8639 29.6281 66.2505 31.4333 61.5398 31.4333C59.1524 31.4333 57.2487 31.1759 55.4738 30.5307V27.0483C56.6354 27.4676 59.0228 28.2091 61.8298 28.2091C63.9911 28.2091 64.9592 27.4676 64.9592 26.5326C64.9592 23.7601 54.8281 25.3394 54.8281 19.5361C54.8281 16.1832 57.4415 14.603 62.1522 14.603L62.153 14.6046Z" fill="#0655D5"/>
<path id="Vector_9" d="M73.3794 8.5116C74.7347 8.5116 75.638 9.34944 75.638 10.6074C75.638 11.8653 74.7347 12.7032 73.3794 12.7032C72.0241 12.7032 71.1208 11.8653 71.1208 10.6074C71.1208 9.34944 72.0241 8.5116 73.3794 8.5116ZM71.4433 14.9593H75.3147V31.0796H71.4433V14.9593Z" fill="#0655D5"/>
<path id="Vector_10" d="M85.9631 14.6372C90.7386 14.6372 93.9652 17.6032 93.9652 21.8587C93.9652 26.1143 91.4158 27.662 89.8353 27.662V27.9842C91.6418 27.9842 94.1256 29.1451 94.1256 32.562C94.1256 36.8499 91.0286 39.4613 86.1243 39.4613C81.22 39.4613 78.1222 36.624 78.1222 31.8852H81.9944C81.962 34.4319 83.4461 35.8186 86.1243 35.8186C88.8025 35.8186 90.2542 34.5614 90.2542 32.3045C90.2542 29.7902 87.8344 29.4672 85.9623 29.4672C81.1544 29.4672 77.9609 26.5012 77.9609 22.0522C77.9609 17.6032 81.1552 14.6372 85.9623 14.6372H85.9631ZM85.9631 25.8569C88.8025 25.8569 90.0929 24.696 90.0929 22.0522C90.0929 19.7314 88.4792 18.2484 85.9631 18.2484C83.4469 18.2484 81.8008 19.7314 81.8008 22.0522C81.8008 24.3731 83.4461 25.8569 85.9631 25.8569ZM93.0288 10.9297C94.4805 10.9297 95.4485 11.7999 95.4485 13.1218C95.4485 14.4437 94.4805 15.3139 93.0288 15.3139C91.5771 15.3139 90.609 14.4437 90.609 13.1218C90.609 11.7999 91.5771 10.9297 93.0288 10.9297Z" fill="#0655D5"/>
<path id="Vector_11" d="M101.704 31.0801H97.832V8.51123H101.682C101.689 11.7994 101.697 15.0884 101.704 18.3766H102.027C102.027 16.7973 103.64 14.6367 107.254 14.6367C111.771 14.6367 114.256 17.6351 114.256 22.2128V31.0793H110.352V22.31C110.352 19.7625 108.867 18.2803 106.255 18.2803C103.286 18.2803 101.705 20.1502 101.705 22.6977V31.0801H101.704Z" fill="#0655D5"/>
<path id="Vector_12" d="M116.578 21.1822V10.6069H120.503C120.485 12.1223 120.468 13.6377 120.45 15.1531H126V18.6024H120.45V21.7618C120.45 25.6628 121.804 27.2745 126 27.2745V31.0792C119.256 31.0792 116.578 27.855 116.578 21.1814V21.1822Z" fill="#0655D5"/>
</g>
</svg>
