<svg width="23" height="23" viewBox="0 0 23 23" fill="none" xmlns="http://www.w3.org/2000/svg">
<g id="tabler:dots">
<path id="Vector" d="M3.69336 11.0796C3.69336 11.3245 3.79064 11.5593 3.9638 11.7325C4.13695 11.9056 4.37181 12.0029 4.61669 12.0029C4.86157 12.0029 5.09643 11.9056 5.26958 11.7325C5.44274 11.5593 5.54002 11.3245 5.54002 11.0796C5.54002 10.8347 5.44274 10.5998 5.26958 10.4267C5.09643 10.2535 4.86157 10.1562 4.61669 10.1562C4.37181 10.1562 4.13695 10.2535 3.9638 10.4267C3.79064 10.5998 3.69336 10.8347 3.69336 11.0796ZM10.1567 11.0796C10.1567 11.3245 10.254 11.5593 10.4271 11.7325C10.6003 11.9056 10.8351 12.0029 11.08 12.0029C11.3249 12.0029 11.5597 11.9056 11.7329 11.7325C11.9061 11.5593 12.0033 11.3245 12.0033 11.0796C12.0033 10.8347 11.9061 10.5998 11.7329 10.4267C11.5597 10.2535 11.3249 10.1562 11.08 10.1562C10.8351 10.1562 10.6003 10.2535 10.4271 10.4267C10.254 10.5998 10.1567 10.8347 10.1567 11.0796ZM16.62 11.0796C16.62 11.3245 16.7173 11.5593 16.8904 11.7325C17.0636 11.9056 17.2984 12.0029 17.5433 12.0029C17.7882 12.0029 18.0231 11.9056 18.1962 11.7325C18.3694 11.5593 18.4666 11.3245 18.4666 11.0796C18.4666 10.8347 18.3694 10.5998 18.1962 10.4267C18.0231 10.2535 17.7882 10.1562 17.5433 10.1562C17.2984 10.1562 17.0636 10.2535 16.8904 10.4267C16.7173 10.5998 16.62 10.8347 16.62 11.0796Z" stroke="black" stroke-width="2" stroke-linecap="round" stroke-linejoin="round"/>
</g>
</svg>
