<svg width="70" height="70" viewBox="0 0 70 70" fill="none" xmlns="http://www.w3.org/2000/svg">
<circle cx="35" cy="35" r="35" fill="#003386" fill-opacity="0.04"/>
<circle cx="35" cy="35" r="34.5" stroke="#001F52" stroke-opacity="0.45"/>
<path d="M48.3333 50V46.6667C48.3333 44.8986 47.6309 43.2029 46.3807 41.9526C45.1304 40.7024 43.4347 40 41.6666 40H28.3333C26.5652 40 24.8695 40.7024 23.6192 41.9526C22.369 43.2029 21.6666 44.8986 21.6666 46.6667V50M41.6666 26.6667C41.6666 30.3486 38.6819 33.3333 35 33.3333C31.3181 33.3333 28.3333 30.3486 28.3333 26.6667C28.3333 22.9848 31.3181 20 35 20C38.6819 20 41.6666 22.9848 41.6666 26.6667Z" stroke="#001F52" stroke-opacity="0.45" stroke-width="2" stroke-linecap="round" stroke-linejoin="round"/>
</svg>
